<?xml version="1.0" standalone="no"?>
<!DOCTYPE svg PUBLIC "-//W3C//DTD SVG 20010904//EN"
 "http://www.w3.org/TR/2001/REC-SVG-20010904/DTD/svg10.dtd">
<svg version="1.0" xmlns="http://www.w3.org/2000/svg"
 width="158.000000pt" height="100.000000pt" viewBox="0 0 158.000000 100.000000"
 preserveAspectRatio="xMidYMid meet">

<g transform="translate(0.000000,100.000000) scale(0.100000,-0.100000)"
fill="#000000" stroke="none">
<path d="M897 814 c-13 -14 -7 -43 12 -53 24 -13 55 8 50 35 -4 19 -48 32 -62
18z"/>
<path d="M1007 814 c-4 -4 -7 -72 -7 -151 0 -124 2 -145 16 -150 9 -3 24 -1
34 5 10 6 22 7 31 1 55 -35 149 25 149 95 0 92 -72 145 -152 111 -14 -6 -17 1
-20 42 -2 39 -7 49 -23 51 -12 2 -24 0 -28 -4z m147 -150 c25 -24 20 -71 -8
-90 -55 -35 -114 39 -70 87 21 23 57 25 78 3z"/>
<path d="M894 717 c-3 -8 -3 -56 -2 -108 l3 -94 28 -3 27 -3 0 110 0 111 -25
0 c-14 0 -28 -6 -31 -13z"/>
<path d="M323 416 c-22 -19 -28 -32 -28 -66 0 -35 6 -47 33 -71 34 -31 66 -36
106 -18 33 15 40 36 16 49 -14 8 -26 8 -40 0 -28 -15 -60 4 -60 34 0 34 22 48
62 41 47 -9 70 16 36 39 -34 24 -92 20 -125 -8z"/>
<path d="M516 409 c-43 -51 -32 -115 24 -144 37 -19 70 -19 98 1 34 24 21 39
-33 39 -30 0 -50 5 -52 13 -4 9 12 12 56 12 71 0 81 11 57 59 -32 61 -107 71
-150 20z m94 -24 c11 -13 7 -15 -24 -15 -35 0 -49 13 -23 23 22 9 34 7 47 -8z"/>
<path d="M747 429 c-27 -16 -49 -67 -42 -99 10 -46 61 -83 107 -78 26 2 38 0
38 -9 0 -8 -13 -13 -35 -13 -50 0 -112 -28 -136 -61 -43 -61 0 -151 66 -135
30 8 111 79 120 106 4 13 19 19 60 22 54 5 95 28 95 53 0 21 -30 26 -53 10
-12 -8 -32 -15 -44 -15 -20 0 -23 5 -23 40 0 23 9 58 20 80 11 21 21 54 22 72
3 27 -1 34 -19 36 -14 2 -23 -3 -28 -18 l-6 -20 -26 20 c-28 22 -86 26 -116 9z
m91 -76 c2 -24 -2 -34 -17 -43 -23 -12 -55 0 -64 24 -9 24 22 57 51 54 22 -2
28 -9 30 -35z m-18 -183 c0 -21 -63 -80 -86 -80 -31 0 -32 29 -1 57 29 28 87
43 87 23z"/>
<path d="M999 411 c-61 -62 -14 -161 77 -161 41 0 84 51 84 98 0 87 -98 126
-161 63z m99 -33 c21 -21 14 -57 -13 -70 -22 -10 -29 -9 -47 10 -19 18 -20 25
-10 47 13 27 49 34 70 13z"/>
<path d="M1204 415 c-23 -35 -7 -69 40 -85 20 -6 36 -16 36 -21 0 -12 -33 -12
-46 1 -7 7 -17 5 -30 -5 -19 -15 -19 -15 5 -35 13 -11 36 -20 51 -20 33 0 80
35 80 59 0 21 -36 56 -68 66 -28 8 -18 27 11 20 12 -3 28 -1 36 4 26 17 -6 41
-55 41 -36 0 -47 -5 -60 -25z"/>
</g>
</svg>
